# xmcd
#
# Track frame offsets:
# 150
# 20750
# 42412
# 58027
# 80550
# 101577
# 124755
# 143695
# 164010
# 186225
# 209427
# 227555
# 248625
# 269072
# 295125
# 315360
#
# Disc length: 4461 seconds
#
#
# Revision: 0
# Processed by: cddbd v1.5PL3 Copyright (c) Steve Scherf et al.
# Submitted via: FreeRIP 2.70 
#
DISCID=ec116b10
DTITLE=Whitney Houston - Greatest Ballads
DYEAR=1900
DGENRE=Ballad
TTITLE0=I Will Always Love You
TTITLE1=One Moment In Time
TTITLE2=Exhale
TTITLE3=Greatest Love
TTITLE4=Why Docs It Hurt So Bad
TTITLE5=Didn't We Almost Have It All
TTITLE6=All The Man That I Need
TTITLE7=Count On Me (with Cece Winans)
TTITLE8=I Have Nothing
TTITLE9=After We Make Love
TTITLE10=Saving All My Love For You
TTITLE11=Where Do Broken Hearts Go
TTITLE12=I Know Him So Well (with Cissy Houston)
TTITLE13=Miracle
TTITLE14=All At Once
TTITLE15=You're Stil My Man
EXTD=
EXTT0=
EXTT1=
EXTT2=
EXTT3=
EXTT4=
EXTT5=
EXTT6=
EXTT7=
EXTT8=
EXTT9=
EXTT10=
EXTT11=
EXTT12=
EXTT13=
EXTT14=
EXTT15=
PLAYORDER=
